# xmcd CD database file
# Copyright (C) 1997 Ti Kan
#
# Track frame offsets:
#  182
#  21705
#  42010
#  59312
#  78020
#  93230
#  116982
#  136047
#  153110
#  177192
#  196137
#  217202
#
# Disc length: 3342 seconds
#
# Revision: 1
# Processed by: cddbd v1.4b41PL1 Copyright (c) Steve Scherf et al.
# Submitted via: CDWizzard Release:4.32
#
DISCID=9b0d0c0c
DTITLE=Kevin Salem - Glimmer
DYEAR=1900
DGENRE=
TTITLE0=Run Run Run
TTITLE1=Innocence
TTITLE2=Pray For Rain
TTITLE3=Chemical Night Train
TTITLE4=Underneath
TTITLE5=Sleep
TTITLE6=Number Seven
TTITLE7=All On Trial
TTITLE8=Always
TTITLE9=Damned
TTITLE10=Trouble
TTITLE11=Destructible
EXTD=
EXTT0=
EXTT1=
EXTT2=
EXTT3=
EXTT4=
EXTT5=
EXTT6=
EXTT7=
EXTT8=
EXTT9=
EXTT10=
EXTT11=
PLAYORDER=
